<svg width="23" height="24" viewBox="0 0 23 24" fill="none" xmlns="http://www.w3.org/2000/svg">
<path d="M23 10.0848L22.7282 9.84807V9.81502H22.6958L11.4165 0L0 0.49642L1.93545 24L22.6885 10.2919H22.7481V10.2555L23 10.0848ZM11.2541 0.478883L22.0124 9.8474L12.4677 10.2406L0.881555 0.932806L11.2541 0.478883ZM2.31259 22.9748L0.522969 1.24442L12.0634 10.5178L2.31259 22.9748ZM3.20078 22.5991L12.5068 10.7114L21.7758 10.3297L3.20078 22.5991Z" fill="black"/>
<path d="M22.0058 9.85343L12.4555 10.2472L0.861679 0.924453L11.2404 0.471924L22.0058 9.85343Z" fill="#B17ADB"/>
<path d="M21.7406 10.3146L3.18155 22.5843L12.4796 10.6964L21.7406 10.3146Z" fill="#C4A1FF"/>
<path d="M12.0634 10.5447L2.31743 22.9887L0.530258 1.28088L12.0634 10.5447Z" fill="#C4A1FF"/>
</svg>
